<svg width="437" height="76" fill="none" xmlns="http://www.w3.org/2000/svg"><path d="M71.25 49.106v-9.325a4.717 4.717 0 0 0-3.384-4.548l-.063-.018L57 32.273V21.375a2.375 2.375 0 1 0-4.75 0v9.613l-7.125-1.93V16.625H47.5a2.375 2.375 0 1 0 0-4.75H11.875a2.375 2.375 0 1 0 0 4.75h2.375v9.5h-2.375a2.375 2.375 0 1 0 0 4.75h8.313a20.208 20.208 0 0 1 20.187 20.188v3.562A2.375 2.375 0 0 0 42.75 57h9.568a10.688 10.688 0 1 0 18.932-7.894ZM20.187 26.125H19v-9.5h21.375v19.822a24.913 24.913 0 0 0-20.188-10.322Zm24.938 7.852L66.5 39.781v5.967a10.687 10.687 0 0 0-13.638 6.502h-7.737V33.977ZM62.938 61.75a5.938 5.938 0 1 1 0-11.875 5.938 5.938 0 0 1 0 11.875Zm-42.75-26.125a15.438 15.438 0 1 0 15.437 15.438 15.456 15.456 0 0 0-15.438-15.438Zm0 26.125a10.687 10.687 0 1 1 0-21.374 10.687 10.687 0 0 1 0 21.374Zm3.562-10.688a3.562 3.562 0 1 1-7.124 0 3.562 3.562 0 0 1 7.124 0ZM94.642 55V20.09h24.341v6.853H103.08v7.16h14.659v6.869H103.08v7.176h15.903V55H94.642Zm63.655-34.91V55h-7.159l-13.892-20.148h-.221V55h-8.438V20.09h7.261l13.739 20.115h.29V20.09h8.42Zm17.552 0 7.807 25.57h.289l7.807-25.57h9.443L189.417 55h-11.233l-11.778-34.91h9.443ZM209.274 55V20.09h14.557c2.613 0 4.801.37 6.562 1.109 1.773.738 3.103 1.773 3.989 3.102.898 1.33 1.346 2.87 1.346 4.62 0 1.329-.278 2.517-.835 3.562a7.355 7.355 0 0 1-2.301 2.574c-.977.682-2.108 1.159-3.392 1.432v.34a8.47 8.47 0 0 1 3.903 1.143c1.205.693 2.171 1.659 2.898 2.897.727 1.228 1.091 2.682 1.091 4.364 0 1.875-.477 3.551-1.432 5.028-.954 1.466-2.335 2.625-4.142 3.478-1.807.84-4 1.261-6.579 1.261h-15.665Zm8.437-6.801h5.216c1.83 0 3.176-.347 4.04-1.04.875-.693 1.313-1.659 1.313-2.898 0-.897-.211-1.67-.631-2.318-.421-.659-1.017-1.165-1.79-1.517-.773-.364-1.699-.545-2.778-.545h-5.37v8.318Zm0-13.756h4.671c.92 0 1.739-.153 2.454-.46.716-.307 1.273-.75 1.671-1.33.409-.58.614-1.278.614-2.096 0-1.17-.415-2.091-1.245-2.761-.829-.671-1.949-1.006-3.358-1.006h-4.807v7.653Zm48.877-14.352h8.421v22.517c0 2.602-.62 4.87-1.858 6.801-1.239 1.92-2.966 3.41-5.182 4.466-2.216 1.045-4.79 1.568-7.722 1.568-2.966 0-5.556-.523-7.772-1.568-2.216-1.057-3.938-2.545-5.165-4.466-1.227-1.932-1.841-4.199-1.841-6.801V20.091h8.437v21.784c0 1.205.262 2.278.785 3.222a5.735 5.735 0 0 0 2.232 2.215c.955.535 2.063.802 3.324.802 1.262 0 2.364-.267 3.307-.801a5.73 5.73 0 0 0 2.233-2.216c.534-.944.801-2.017.801-3.222V20.091Zm26.467 0V55h-8.438V20.09h8.438ZM302.671 55V20.09h8.438v28.058h14.523V55h-22.961Zm44.552 0H334.32V20.09h12.886c3.557 0 6.619.7 9.187 2.098 2.58 1.386 4.569 3.386 5.966 6 1.398 2.602 2.097 5.715 2.097 9.34 0 3.637-.699 6.762-2.097 9.375-1.386 2.614-3.369 4.62-5.949 6.017-2.579 1.387-5.642 2.08-9.187 2.08Zm-4.466-7.193h4.142c1.955 0 3.608-.33 4.96-.989 1.364-.67 2.392-1.755 3.086-3.255.704-1.512 1.056-3.523 1.056-6.035 0-2.511-.352-4.511-1.056-6-.705-1.5-1.745-2.58-3.12-3.238-1.363-.67-3.045-1.006-5.045-1.006h-4.023v20.523ZM373.702 55V20.09h24.341v6.853H382.14v7.16h14.659v6.869H382.14v7.176h15.903V55h-24.341Zm33.945 0V20.09h14.421c2.613 0 4.869.473 6.767 1.416 1.909.931 3.38 2.272 4.414 4.022 1.034 1.739 1.551 3.802 1.551 6.188 0 2.42-.528 4.477-1.585 6.17-1.057 1.682-2.557 2.966-4.5 3.853-1.943.875-4.244 1.312-6.903 1.312h-9.119v-6.648h7.551c1.272 0 2.335-.164 3.187-.494.864-.34 1.517-.852 1.96-1.534.444-.693.665-1.58.665-2.66 0-1.079-.221-1.97-.665-2.675-.443-.716-1.096-1.25-1.96-1.602-.863-.364-1.926-.546-3.187-.546h-4.159V55h-8.438ZM427.3 39.045 435.994 55h-9.205l-8.523-15.955h9.034Z" fill="#fff"/></svg>